<svg width="14" height="14" viewBox="0 0 14 14" fill="none" xmlns="http://www.w3.org/2000/svg">
<path d="M10.6822 0.933452C10.7584 0.778042 10.7695 0.60223 10.7136 0.438488C10.6576 0.274746 10.5413 0.142513 10.3859 0.06625C10.065 -0.0910833 9.67612 0.0417901 9.51868 0.362545L8.86499 1.6948C8.31192 1.40043 7.6813 1.23327 7.01224 1.23327C6.34317 1.23327 5.71255 1.40043 5.15948 1.6948L4.5058 0.362545C4.34836 0.0417901 3.95935 -0.0911902 3.6386 0.06625C3.48318 0.142513 3.36687 0.274639 3.3109 0.438488C3.25493 0.60223 3.26604 0.778042 3.3423 0.933346L4.11188 2.50166C3.45659 3.208 3.0553 4.15296 3.0553 5.1901C3.0553 5.30439 3.1479 5.397 3.26219 5.397H10.7623C10.8765 5.397 10.9691 5.30439 10.9691 5.1901C10.9691 4.15296 10.5678 3.208 9.9126 2.50166L10.6822 0.933452ZM9.89006 0.544659C9.94688 0.428768 10.0877 0.380596 10.2037 0.437527C10.3197 0.494457 10.3677 0.635128 10.3108 0.751232L9.60017 2.19928C9.4799 2.09503 9.35312 1.99783 9.22078 1.90853L9.89006 0.544659ZM3.82082 0.437527C3.93681 0.380596 4.07759 0.428661 4.13441 0.544659L4.8037 1.90853C4.67136 1.99794 4.54457 2.09503 4.42419 2.19938L3.71368 0.751232C3.65665 0.635128 3.70482 0.494457 3.82082 0.437527ZM3.47496 4.98332C3.58241 3.12544 5.12787 1.64685 7.01224 1.64685C8.89661 1.64685 10.4421 3.12544 10.5495 4.98332H3.47496Z" fill="white"/>
<path d="M12.4167 5.86566C11.877 5.86566 11.4379 6.30476 11.4379 6.84459V10.1534C11.4379 10.6932 11.877 11.1323 12.4167 11.1323C12.9565 11.1323 13.3956 10.6932 13.3956 10.1534V6.84459C13.3956 6.30476 12.9565 5.86566 12.4167 5.86566ZM12.982 10.1534C12.982 10.4652 12.7285 10.7187 12.4167 10.7187C12.105 10.7187 11.8514 10.4652 11.8514 10.1534V6.84459C11.8514 6.53281 12.105 6.27924 12.4167 6.27924C12.7285 6.27924 12.982 6.53281 12.982 6.84459V10.1534Z" fill="white"/>
<path d="M10.7623 5.86566H9.68692C9.57274 5.86566 9.48013 5.95827 9.48013 6.07245C9.48013 6.18674 9.57274 6.27924 9.68692 6.27924H10.5555V11.1599H9.65936C9.54507 11.1599 9.45258 11.2525 9.45258 11.3667V13.0212C9.45258 13.3329 9.19901 13.5864 8.88733 13.5864C8.57555 13.5864 8.32198 13.3329 8.32198 13.0212V11.3667C8.32198 11.2525 8.22948 11.1599 8.11519 11.1599H5.90932C5.79503 11.1599 5.70253 11.2525 5.70253 11.3667V13.0212C5.70253 13.3329 5.44896 13.5864 5.13718 13.5864C4.8255 13.5864 4.57193 13.3329 4.57193 13.0212V11.3667C4.57193 11.2525 4.47943 11.1599 4.36514 11.1599H3.46899V6.27924H8.68044C8.79472 6.27924 8.88733 6.18674 8.88733 6.07245C8.88733 5.95827 8.79472 5.86566 8.68044 5.86566H3.26221C3.14792 5.86566 3.05542 5.95827 3.05542 6.07245V11.3667C3.05542 11.481 3.14792 11.5735 3.26221 11.5735H4.15836V13.0212C4.15836 13.5609 4.59746 14 5.13718 14C5.677 14 6.1161 13.5609 6.1161 13.0212V11.5735H7.9084V13.0212C7.9084 13.5609 8.3475 14 8.88733 14C9.42705 14 9.86615 13.5609 9.86615 13.0212V11.5735H10.7623C10.8766 11.5735 10.9691 11.481 10.9691 11.3667V6.07245C10.9691 5.95827 10.8765 5.86566 10.7623 5.86566Z" fill="white"/>
<path d="M1.60783 5.86566C1.06801 5.86566 0.628906 6.30476 0.628906 6.84459V10.1534C0.628906 10.6932 1.06801 11.1323 1.60783 11.1323C2.14755 11.1323 2.58665 10.6932 2.58665 10.1534V6.84459C2.58665 6.30476 2.14755 5.86566 1.60783 5.86566ZM2.17308 10.1534C2.17308 10.4652 1.91951 10.7187 1.60783 10.7187C1.29605 10.7187 1.04248 10.4652 1.04248 10.1534V6.84459C1.04248 6.53281 1.29605 6.27924 1.60783 6.27924C1.91951 6.27924 2.17308 6.53281 2.17308 6.84459V10.1534Z" fill="white"/>
<path d="M5.24751 3.21854C4.89023 3.21854 4.59949 3.50928 4.59949 3.86656C4.59949 4.22385 4.89023 4.51459 5.24751 4.51459C5.6048 4.51459 5.89554 4.22385 5.89554 3.86656C5.89554 3.50928 5.6048 3.21854 5.24751 3.21854ZM5.24751 4.10091C5.11827 4.10091 5.01317 3.9958 5.01317 3.86656C5.01317 3.73732 5.11827 3.63222 5.24751 3.63222C5.37675 3.63222 5.48186 3.73732 5.48186 3.86656C5.48186 3.9958 5.37675 4.10091 5.24751 4.10091Z" fill="white"/>
<path d="M8.77705 3.21854C8.41977 3.21854 8.12903 3.50928 8.12903 3.86656C8.12903 4.22385 8.41977 4.51459 8.77705 4.51459C9.13434 4.51459 9.42508 4.22385 9.42508 3.86656C9.42508 3.50928 9.13434 3.21854 8.77705 3.21854ZM8.77705 4.10091C8.64781 4.10091 8.54271 3.9958 8.54271 3.86656C8.54271 3.73732 8.64781 3.63222 8.77705 3.63222C8.9063 3.63222 9.0114 3.73732 9.0114 3.86656C9.0114 3.9958 8.9063 4.10091 8.77705 4.10091Z" fill="white"/>
</svg>
