<svg width="14" height="14" viewBox="0 0 14 14" fill="none" xmlns="http://www.w3.org/2000/svg">
<g clip-path="url(#clip0)">
<path d="M12.4982 9.91442C12.1153 9.72168 11.2016 9.14164 10.9872 7.9221C10.9676 7.81057 10.8614 7.73611 10.7497 7.75564C10.6381 7.77524 10.5636 7.88155 10.5832 7.99314C10.8292 9.39273 11.8712 10.0574 12.311 10.2794C12.1925 10.6228 11.9239 11.2989 11.4511 11.9891C10.9487 12.7237 10.3793 13.5564 9.53379 13.5724C8.68482 13.5864 8.37808 13.0316 7.2913 13.0316C6.20433 13.0316 5.85854 13.5572 5.05384 13.5891C4.29637 13.6181 3.68876 12.8328 3.0817 11.9553C1.95992 10.3328 1.07043 7.32697 2.22833 5.3172C2.71251 4.47685 3.51417 3.90711 4.42773 3.7541C4.53942 3.7354 4.61481 3.62966 4.59611 3.51793C4.57741 3.4062 4.47175 3.33076 4.35994 3.34955C3.32501 3.52291 2.41851 4.16546 1.87286 5.11245C0.635202 7.26063 1.52716 10.4283 2.74431 12.1887C3.24514 12.9126 3.99744 14.0002 5.0151 14C5.93256 14 6.27712 13.4418 7.29127 13.4418C8.2801 13.4418 8.57077 14.0006 9.54139 13.9825C10.5984 13.9624 11.259 12.9967 11.7896 12.2207C12.2907 11.4892 12.5749 10.7726 12.6997 10.4105C12.7657 10.2188 12.6791 10.0055 12.4982 9.91442Z" fill="white"/>
<path d="M9.94973 0.396646C9.94459 0.151919 9.72307 -0.0324053 9.4801 0.00478223C7.88615 0.248278 6.73356 1.78888 6.7842 3.14163C6.79237 3.35882 6.97241 3.53131 7.18809 3.53131C7.19192 3.53131 7.19575 3.53125 7.19958 3.53114C8.69109 3.48895 9.98229 1.93922 9.94973 0.396646ZM7.19392 3.12096C7.17002 2.43004 7.53323 1.75393 7.8826 1.34999C8.28534 0.878442 8.95127 0.501071 9.53976 0.410317C9.56434 1.71497 8.46846 3.08019 7.19392 3.12096Z" fill="white"/>
<path d="M12.2407 4.52448C11.6222 3.73602 10.7416 3.34487 9.72958 3.2694C8.56466 3.18316 7.57161 3.89453 7.11295 3.89453C6.73755 3.89453 6.09098 3.49758 5.39188 3.35545C5.28081 3.33281 5.17261 3.40456 5.15002 3.51555C5.12747 3.62654 5.19913 3.73482 5.31012 3.7574C5.99426 3.89653 6.61551 4.30471 7.11295 4.30471C7.71101 4.30471 8.62689 3.59895 9.69918 3.67843C10.5918 3.74504 11.3676 4.07847 11.915 4.77385C11.5588 5.03042 10.7183 5.75574 10.5586 6.97385C10.5439 7.08615 10.623 7.18912 10.7352 7.20386C10.7443 7.20504 10.7533 7.20561 10.7622 7.20561C10.8636 7.20561 10.9517 7.13042 10.9653 7.02719C11.1045 5.96587 11.8446 5.32975 12.1563 5.10556C12.3408 4.97294 12.3858 4.70946 12.2407 4.52448Z" fill="white"/>
</g>
<defs>
<clipPath id="clip0">
<rect width="14" height="14" fill="white"/>
</clipPath>
</defs>
</svg>
