<svg width="20" height="20" viewBox="0 0 20 20" fill="none" xmlns="http://www.w3.org/2000/svg">
<g clip-path="url(#clip0)">
<path d="M11.8323 10.0165L19.6199 2.22862C20.1267 1.72205 20.1267 0.903002 19.6199 0.396435C19.1134 -0.110132 18.2943 -0.110132 17.7877 0.396435L9.9999 8.18427L2.21229 0.396435C1.70548 -0.110132 0.88667 -0.110132 0.380103 0.396435C-0.126701 0.903002 -0.126701 1.72205 0.380103 2.22862L8.16771 10.0165L0.380103 17.8043C-0.126701 18.3109 -0.126701 19.1299 0.380103 19.6365C0.632556 19.8892 0.964494 20.0161 1.29619 20.0161C1.6279 20.0161 1.9596 19.8892 2.21229 19.6365L9.9999 11.8486L17.7877 19.6365C18.0404 19.8892 18.3721 20.0161 18.7038 20.0161C19.0355 20.0161 19.3672 19.8892 19.6199 19.6365C20.1267 19.1299 20.1267 18.3109 19.6199 17.8043L11.8323 10.0165Z" fill="#FBFBFB"/>
</g>
<defs>
<clipPath id="clip0">
<rect width="20" height="20" fill="white"/>
</clipPath>
</defs>
</svg>
