<svg width="30" height="30" viewBox="0 0 30 30" fill="none" xmlns="http://www.w3.org/2000/svg">
<path d="M12.6 1.79999C6.96093 1.79999 2.39999 6.36093 2.39999 12C2.39999 17.6391 6.96093 22.2 12.6 22.2C14.6133 22.2 16.4766 21.6094 18.0562 20.6062L25.425 27.975L27.975 25.425L20.7 18.1687C22.0078 16.4531 22.8 14.3273 22.8 12C22.8 6.36093 18.2391 1.79999 12.6 1.79999ZM12.6 4.19999C16.9195 4.19999 20.4 7.68046 20.4 12C20.4 16.3195 16.9195 19.8 12.6 19.8C8.28046 19.8 4.79999 16.3195 4.79999 12C4.79999 7.68046 8.28046 4.19999 12.6 4.19999Z" fill="#ADA7A7"/>
</svg>
