<svg width="14" height="14" viewBox="0 0 14 14" fill="none" xmlns="http://www.w3.org/2000/svg">
<path d="M11.6816 9.81287V7.98243H11.0101V9.44576C11.0101 9.67456 10.8228 9.86144 10.5945 9.86144H2.27841C2.05005 9.86144 1.86273 9.67472 1.86273 9.44576V4.45758C1.86273 4.22817 2.05005 4.04144 2.27841 4.04144H7.03612V3.61505H1.66906C1.40677 3.61505 1.19139 3.82877 1.19139 4.09167V6.95302V9.81287V10.2895L0 11.7199C0 12.1151 0.320057 12.4358 0.714623 12.4358H12.1576C12.5522 12.4358 12.8723 12.1151 12.8723 11.7199L11.6809 10.2895V9.81287H11.6816ZM7.39087 12.1966H5.4832C5.41683 12.1966 5.36389 12.1436 5.36389 12.0773C5.36389 12.0109 5.41683 11.9579 5.4832 11.9579H7.39027C7.45558 11.9579 7.50957 12.0109 7.50957 12.0773C7.50852 12.1436 7.45618 12.1966 7.39087 12.1966ZM4.47114 11.7199L4.83494 11.2833H8.03807L8.40187 11.7199H4.47114Z" fill="white"/>
<path d="M6.64973 7.1322H5.65381V8.12706H6.64973V7.1322Z" fill="white"/>
<path d="M7.27315 5.76453H6.27783V6.76044H7.27315V5.76453Z" fill="white"/>
<path d="M8.25227 7.01349H7.25696V8.0088H8.25227V7.01349Z" fill="white"/>
<path d="M9.22948 5.35956H8.04834V6.54069H9.22948V5.35956Z" fill="white"/>
<path d="M10.9 1.7392H9.71887V2.92033H10.9V1.7392Z" fill="white"/>
<path d="M8.75706 3.87524H7.57593V5.05638H8.75706V3.87524Z" fill="white"/>
<path d="M11.1192 3.36993H9.43237V5.0568H11.1192V3.36993Z" fill="white"/>
<path d="M12.7325 5.40326H10.6921V7.44426H12.7325V5.40326Z" fill="white"/>
<path d="M14 1.56439H11.4646V4.09981H14V1.56439Z" fill="white"/>
<path d="M10.3089 6.67609H9.12781V7.85722H10.3089V6.67609Z" fill="white"/>
</svg>
