<svg width="52" height="53" viewBox="0 0 52 53" fill="none" xmlns="http://www.w3.org/2000/svg">
<path d="M12.48 28.62C6.17241 28.62 1.04001 33.8511 1.04001 40.28C1.04001 46.7089 6.17241 51.94 12.48 51.94C16.3384 51.94 19.9545 49.9239 22.0574 46.64H29.9416C32.0455 49.9239 35.6616 51.94 39.519 51.94C45.8266 51.94 50.959 46.7089 50.959 40.28C50.959 33.8511 45.8266 28.62 39.519 28.62H27.04V26.5C27.04 24.1616 25.1742 22.26 22.88 22.26H18.72C17.5729 22.26 16.64 21.3092 16.64 20.14C16.64 18.9708 17.5729 18.02 18.72 18.02H33.28C35.5742 18.02 37.44 16.1184 37.44 13.78C37.44 11.4416 35.5742 9.54 33.28 9.54H29.12C27.9729 9.54 27.04 8.58918 27.04 7.42V1.06H24.96V7.42C24.96 9.75836 26.8258 11.66 29.12 11.66H33.28C34.4271 11.66 35.36 12.6108 35.36 13.78C35.36 14.9492 34.4271 15.9 33.28 15.9H18.72C16.4258 15.9 14.56 17.8016 14.56 20.14C14.56 22.4784 16.4258 24.38 18.72 24.38H22.88C24.0271 24.38 24.96 25.3308 24.96 26.5V28.62H12.48ZM48.88 40.28C48.88 45.5397 44.6805 49.82 39.52 49.82C36.1982 49.82 33.0949 47.9915 31.4226 45.0489L31.123 44.52H20.879L20.5785 45.0489C18.9062 47.9915 15.8018 49.82 12.48 49.82C7.31953 49.82 3.12001 45.5397 3.12001 40.28C3.12001 35.0203 7.31953 30.74 12.48 30.74H39.52C44.6805 30.74 48.88 35.0203 48.88 40.28Z" fill="white"/>
<path d="M11.44 36.04V39.22H8.32001V41.34H11.44V44.52H13.52V41.34H16.64V39.22H13.52V36.04H11.44Z" fill="white"/>
<path d="M24.96 40.28H21.84V42.4H24.96V40.28Z" fill="white"/>
<path d="M30.16 40.28H27.04V42.4H30.16V40.28Z" fill="white"/>
<path d="M38.48 36.04H36.4V38.16H38.48V36.04Z" fill="white"/>
<path d="M43.68 34.98H41.6V37.1H43.68V34.98Z" fill="white"/>
<path d="M38.48 41.34H36.4V43.46H38.48V41.34Z" fill="white"/>
<path d="M43.68 40.28H41.6V42.4H43.68V40.28Z" fill="white"/>
</svg>
