<svg width="14" height="14" viewBox="0 0 14 14" fill="none" xmlns="http://www.w3.org/2000/svg">
<path d="M5.38464 1.88461V11.762L7.52166 12.4183V4.17307C7.52166 3.95432 7.549 3.79447 7.63945 3.70192C7.72989 3.57572 7.81403 3.5631 7.94233 3.61779C8.25153 3.70823 8.39666 3.98798 8.39666 4.44231V7.75721C9.08867 8.08533 9.70916 8.11899 10.1635 7.77404C10.6367 7.44591 10.887 6.86328 10.887 5.99038C10.887 5.07963 10.7167 4.3771 10.3149 3.92067C9.95105 3.43059 9.30952 3.03726 8.36301 2.70913C7.18091 2.32632 6.18602 2.05288 5.38464 1.88461ZM4.72839 7.85817L4.30772 7.99279L1.66589 8.93509L1.21156 9.12019C0.519556 9.41046 0.149364 9.72175 0.168294 9.99519C0.204051 10.3948 0.660482 10.6851 1.48079 10.9038C2.5451 11.1899 3.62412 11.2551 4.72839 11.0889V9.96154L4.30772 10.113L3.83656 10.2981L3.07935 10.4495L2.35579 10.3654C2.21066 10.2728 2.16228 10.1698 2.25483 10.0793C2.34528 10.0246 2.47989 9.94892 2.62502 9.89423L3.11301 9.72596L4.72839 9.15384V7.85817ZM10.8534 8.37981C10.6557 8.37139 10.4559 8.38822 10.2644 8.39663C9.55772 8.41136 8.83206 8.52704 8.07695 8.76682V10.0962L9.57454 9.57452L10.3486 9.30529C10.3486 9.30529 10.6409 9.22746 10.8534 9.17067C11.1794 9.08443 11.5265 9.20432 11.5265 9.20432C11.7263 9.22115 11.8272 9.29687 11.863 9.38942C11.8988 9.4988 11.7662 9.58293 11.4928 9.67548L10.8197 9.94471L8.07695 10.9207V12.2163L9.35579 11.762L12.4351 10.6683L12.8053 10.5C13.5352 10.2266 13.8675 9.9384 13.8318 9.57452C13.8128 9.22746 13.3985 8.95402 12.6707 8.71634C12.0565 8.51021 11.4444 8.40294 10.8534 8.37981Z" fill="white"/>
</svg>
